<svg xmlns="http://www.w3.org/2000/svg" width="1em" height="1em" viewBox="0 0 256 256"><path fill="currentColor" d="M228.79 50.34A13.83 13.83 0 0 0 216 42H40a14 14 0 0 0-10.33 23.42l.06.06L98 138.38V216a14 14 0 0 0 21.76 11.64l32-21.33a14 14 0 0 0 6.24-11.65v-56.28l68.34-73a13.83 13.83 0 0 0 2.45-15.04m-11.26 6.94l-69.9 74.62A6 6 0 0 0 146 136v58.66a2 2 0 0 1-.89 1.67l-32 21.33A2 2 0 0 1 110 216v-80a6 6 0 0 0-1.62-4.1L38.53 57.32a1.89 1.89 0 0 1-.33-2.13A1.91 1.91 0 0 1 40 54h176a1.9 1.9 0 0 1 1.82 1.19a1.87 1.87 0 0 1-.29 2.09m26.71 154.49a6 6 0 1 1-8.48 8.48L216 200.49l-19.75 19.76a6 6 0 0 1-8.49-8.48L207.52 192l-19.76-19.76a6 6 0 0 1 8.49-8.49L216 183.52l19.76-19.76a6 6 0 0 1 8.48 8.49L224.49 192Z"/></svg>