<svg xmlns="http://www.w3.org/2000/svg" width="1em" height="1em" viewBox="0 0 256 256"><path fill="currentColor" d="m255.42 117l-14-35a15.93 15.93 0 0 0-14.84-10H192v-8a8 8 0 0 0-8-8H32a16 16 0 0 0-16 16v112a16 16 0 0 0 16 16h17a32 32 0 0 0 62 0h50a32 32 0 0 0 62 0h17a16 16 0 0 0 16-16v-64a7.9 7.9 0 0 0-.58-3M192 88h34.58l9.6 24H192ZM32 72h144v64H32Zm48 136a16 16 0 1 1 16-16a16 16 0 0 1-16 16m81-24h-50a32 32 0 0 0-62 0H32v-32h144v12.31A32.1 32.1 0 0 0 161 184m31 24a16 16 0 1 1 16-16a16 16 0 0 1-16 16m48-24h-17a32.06 32.06 0 0 0-31-24v-32h48Z"/></svg>