<svg xmlns="http://www.w3.org/2000/svg"><symbol id="arrow-left" viewBox="0 0 256 256"><path fill="currentColor" d="M224 128a8 8 0 0 1-8 8H59.31l58.35 58.34a8 8 0 0 1-11.32 11.32l-72-72a8 8 0 0 1 0-11.32l72-72a8 8 0 0 1 11.32 11.32L59.31 120H216a8 8 0 0 1 8 8"/></symbol><symbol id="arrow-right" viewBox="0 0 256 256"><path fill="currentColor" d="m221.66 133.66l-72 72a8 8 0 0 1-11.32-11.32L196.69 136H40a8 8 0 0 1 0-16h156.69l-58.35-58.34a8 8 0 0 1 11.32-11.32l72 72a8 8 0 0 1 0 11.32"/></symbol><symbol id="arrows-out-simple" viewBox="0 0 256 256"><path fill="currentColor" d="M216 48v48a8 8 0 0 1-16 0V67.31l-50.34 50.35a8 8 0 0 1-11.32-11.32L188.69 56H160a8 8 0 0 1 0-16h48a8 8 0 0 1 8 8m-109.66 90.34L56 188.69V160a8 8 0 0 0-16 0v48a8 8 0 0 0 8 8h48a8 8 0 0 0 0-16H67.31l50.35-50.34a8 8 0 0 0-11.32-11.32"/></symbol><symbol id="caret-double-left" viewBox="0 0 256 256"><path fill="currentColor" d="M205.66 202.34a8 8 0 0 1-11.32 11.32l-80-80a8 8 0 0 1 0-11.32l80-80a8 8 0 0 1 11.32 11.32L131.31 128ZM51.31 128l74.35-74.34a8 8 0 0 0-11.32-11.32l-80 80a8 8 0 0 0 0 11.32l80 80a8 8 0 0 0 11.32-11.32Z"/></symbol><symbol id="caret-double-right" viewBox="0 0 256 256"><path fill="currentColor" d="m141.66 133.66l-80 80a8 8 0 0 1-11.32-11.32L124.69 128L50.34 53.66a8 8 0 0 1 11.32-11.32l80 80a8 8 0 0 1 0 11.32m80-11.32l-80-80a8 8 0 0 0-11.32 11.32L204.69 128l-74.35 74.34a8 8 0 0 0 11.32 11.32l80-80a8 8 0 0 0 0-11.32"/></symbol><symbol id="caret-down" viewBox="0 0 256 256"><path fill="currentColor" d="m213.66 101.66l-80 80a8 8 0 0 1-11.32 0l-80-80a8 8 0 0 1 11.32-11.32L128 164.69l74.34-74.35a8 8 0 0 1 11.32 11.32"/></symbol><symbol id="caret-left" viewBox="0 0 256 256"><path fill="currentColor" d="M165.66 202.34a8 8 0 0 1-11.32 11.32l-80-80a8 8 0 0 1 0-11.32l80-80a8 8 0 0 1 11.32 11.32L91.31 128Z"/></symbol><symbol id="caret-right" viewBox="0 0 256 256"><path fill="currentColor" d="m181.66 133.66l-80 80a8 8 0 0 1-11.32-11.32L164.69 128L90.34 53.66a8 8 0 0 1 11.32-11.32l80 80a8 8 0 0 1 0 11.32"/></symbol><symbol id="caret-up" viewBox="0 0 256 256"><path fill="currentColor" d="M213.66 165.66a8 8 0 0 1-11.32 0L128 91.31l-74.34 74.35a8 8 0 0 1-11.32-11.32l80-80a8 8 0 0 1 11.32 0l80 80a8 8 0 0 1 0 11.32"/></symbol><symbol id="check" viewBox="0 0 256 256"><path fill="currentColor" d="m229.66 77.66l-128 128a8 8 0 0 1-11.32 0l-56-56a8 8 0 0 1 11.32-11.32L96 188.69L218.34 66.34a8 8 0 0 1 11.32 11.32"/></symbol><symbol id="circle-notch" viewBox="0 0 256 256"><path fill="currentColor" d="M232 128a104 104 0 0 1-208 0c0-41 23.81-78.36 60.66-95.27a8 8 0 0 1 6.68 14.54C60.15 61.59 40 93.27 40 128a88 88 0 0 0 176 0c0-34.73-20.15-66.41-51.34-80.73a8 8 0 0 1 6.68-14.54C208.19 49.64 232 87 232 128"/></symbol><symbol id="circle" viewBox="0 0 256 256"><path fill="currentColor" d="M128 24a104 104 0 1 0 104 104A104.11 104.11 0 0 0 128 24m0 192a88 88 0 1 1 88-88a88.1 88.1 0 0 1-88 88"/></symbol><symbol id="clock-duotone" viewBox="0 0 256 256"><g fill="currentColor"><path d="M224 128a96 96 0 1 1-96-96a96 96 0 0 1 96 96" opacity=".2"/><path d="M128 24a104 104 0 1 0 104 104A104.11 104.11 0 0 0 128 24m0 192a88 88 0 1 1 88-88a88.1 88.1 0 0 1-88 88m64-88a8 8 0 0 1-8 8h-56a8 8 0 0 1-8-8V72a8 8 0 0 1 16 0v48h48a8 8 0 0 1 8 8"/></g></symbol><symbol id="clock" viewBox="0 0 256 256"><path fill="currentColor" d="M128 24a104 104 0 1 0 104 104A104.11 104.11 0 0 0 128 24m0 192a88 88 0 1 1 88-88a88.1 88.1 0 0 1-88 88m64-88a8 8 0 0 1-8 8h-56a8 8 0 0 1-8-8V72a8 8 0 0 1 16 0v48h48a8 8 0 0 1 8 8"/></symbol><symbol id="cube" viewBox="0 0 256 256"><path fill="currentColor" d="m223.68 66.15l-88-48.15a15.88 15.88 0 0 0-15.36 0l-88 48.17a16 16 0 0 0-8.32 14v95.64a16 16 0 0 0 8.32 14l88 48.17a15.88 15.88 0 0 0 15.36 0l88-48.17a16 16 0 0 0 8.32-14V80.18a16 16 0 0 0-8.32-14.03M128 32l80.34 44L128 120L47.66 76ZM40 90l80 43.78v85.79l-80-43.75Zm96 129.57v-85.75L216 90v85.78Z"/></symbol><symbol id="envelope-simple" viewBox="0 0 256 256"><path fill="currentColor" d="M224 48H32a8 8 0 0 0-8 8v136a16 16 0 0 0 16 16h176a16 16 0 0 0 16-16V56a8 8 0 0 0-8-8m-20.57 16L128 133.15L52.57 64ZM216 192H40V74.19l82.59 75.71a8 8 0 0 0 10.82 0L216 74.19z"/></symbol><symbol id="facebook-logo" viewBox="0 0 256 256"><path fill="currentColor" d="M128 24a104 104 0 1 0 104 104A104.11 104.11 0 0 0 128 24m8 191.63V152h24a8 8 0 0 0 0-16h-24v-24a16 16 0 0 1 16-16h16a8 8 0 0 0 0-16h-16a32 32 0 0 0-32 32v24H96a8 8 0 0 0 0 16h24v63.63a88 88 0 1 1 16 0"/></symbol><symbol id="file-text" viewBox="0 0 256 256"><path fill="currentColor" d="m213.66 82.34l-56-56A8 8 0 0 0 152 24H56a16 16 0 0 0-16 16v176a16 16 0 0 0 16 16h144a16 16 0 0 0 16-16V88a8 8 0 0 0-2.34-5.66M160 51.31L188.69 80H160ZM200 216H56V40h88v48a8 8 0 0 0 8 8h48zm-32-80a8 8 0 0 1-8 8H96a8 8 0 0 1 0-16h64a8 8 0 0 1 8 8m0 32a8 8 0 0 1-8 8H96a8 8 0 0 1 0-16h64a8 8 0 0 1 8 8"/></symbol><symbol id="funnel-x-light" viewBox="0 0 256 256"><path fill="currentColor" d="M228.79 50.34A13.83 13.83 0 0 0 216 42H40a14 14 0 0 0-10.33 23.42l.06.06L98 138.38V216a14 14 0 0 0 21.76 11.64l32-21.33a14 14 0 0 0 6.24-11.65v-56.28l68.34-73a13.83 13.83 0 0 0 2.45-15.04m-11.26 6.94l-69.9 74.62A6 6 0 0 0 146 136v58.66a2 2 0 0 1-.89 1.67l-32 21.33A2 2 0 0 1 110 216v-80a6 6 0 0 0-1.62-4.1L38.53 57.32a1.89 1.89 0 0 1-.33-2.13A1.91 1.91 0 0 1 40 54h176a1.9 1.9 0 0 1 1.82 1.19a1.87 1.87 0 0 1-.29 2.09m26.71 154.49a6 6 0 1 1-8.48 8.48L216 200.49l-19.75 19.76a6 6 0 0 1-8.49-8.48L207.52 192l-19.76-19.76a6 6 0 0 1 8.49-8.49L216 183.52l19.76-19.76a6 6 0 0 1 8.48 8.49L224.49 192Z"/></symbol><symbol id="funnel-x" viewBox="0 0 256 256"><path fill="currentColor" d="M227.82 66.76A16 16 0 0 0 216 40H40a16 16 0 0 0-11.81 26.76l.08.09L96 139.17V216a16 16 0 0 0 24.87 13.32l32-21.34a16 16 0 0 0 7.13-13.32v-55.49l67.73-72.32Zm-81.63 63.83A8 8 0 0 0 144 136v58.66L112 216v-80a8 8 0 0 0-2.16-5.46L40 56h176Zm99.49 79.81a8 8 0 0 1-11.32 11.32L216 203.32l-18.34 18.35a8 8 0 0 1-11.31-11.32L204.69 192l-18.34-18.35a8 8 0 0 1 11.31-11.31L216 180.69l18.34-18.34a8 8 0 0 1 11.32 11.31L227.31 192Z"/></symbol><symbol id="gift" viewBox="0 0 256 256"><path fill="currentColor" d="M216 72h-35.08c.39-.33.79-.65 1.17-1A29.53 29.53 0 0 0 192 49.57A32.62 32.62 0 0 0 158.44 16A29.53 29.53 0 0 0 137 25.91a55 55 0 0 0-9 14.48a55 55 0 0 0-9-14.48A29.53 29.53 0 0 0 97.56 16A32.62 32.62 0 0 0 64 49.57A29.53 29.53 0 0 0 73.91 71c.38.33.78.65 1.17 1H40a16 16 0 0 0-16 16v32a16 16 0 0 0 16 16v64a16 16 0 0 0 16 16h144a16 16 0 0 0 16-16v-64a16 16 0 0 0 16-16V88a16 16 0 0 0-16-16m-67-35.49a13.7 13.7 0 0 1 10-4.5h.49A16.62 16.62 0 0 1 176 49.08a13.7 13.7 0 0 1-4.5 10c-9.49 8.4-25.24 11.36-35 12.4c1.2-10.59 4.5-25.98 12.5-34.97m-64.09.36A16.63 16.63 0 0 1 96.59 32h.49a13.7 13.7 0 0 1 10 4.5c8.39 9.48 11.35 25.2 12.39 34.92c-9.72-1-25.44-4-34.92-12.39a13.7 13.7 0 0 1-4.5-10a16.6 16.6 0 0 1 4.82-12.16ZM40 88h80v32H40Zm16 48h64v64H56Zm144 64h-64v-64h64Zm16-80h-80V88h80z"/></symbol><symbol id="github-logo" viewBox="0 0 256 256"><path fill="currentColor" d="M208.31 75.68A59.78 59.78 0 0 0 202.93 28a8 8 0 0 0-6.93-4a59.75 59.75 0 0 0-48 24h-24a59.75 59.75 0 0 0-48-24a8 8 0 0 0-6.93 4a59.78 59.78 0 0 0-5.38 47.68A58.14 58.14 0 0 0 56 104v8a56.06 56.06 0 0 0 48.44 55.47A39.8 39.8 0 0 0 96 192v8H72a24 24 0 0 1-24-24a40 40 0 0 0-40-40a8 8 0 0 0 0 16a24 24 0 0 1 24 24a40 40 0 0 0 40 40h24v16a8 8 0 0 0 16 0v-40a24 24 0 0 1 48 0v40a8 8 0 0 0 16 0v-40a39.8 39.8 0 0 0-8.44-24.53A56.06 56.06 0 0 0 216 112v-8a58.14 58.14 0 0 0-7.69-28.32M200 112a40 40 0 0 1-40 40h-48a40 40 0 0 1-40-40v-8a41.74 41.74 0 0 1 6.9-22.48a8 8 0 0 0 1.1-7.69a43.8 43.8 0 0 1 .79-33.58a43.88 43.88 0 0 1 32.32 20.06a8 8 0 0 0 6.71 3.69h32.35a8 8 0 0 0 6.74-3.69a43.87 43.87 0 0 1 32.32-20.06a43.8 43.8 0 0 1 .77 33.58a8.09 8.09 0 0 0 1 7.65a41.7 41.7 0 0 1 7 22.52Z"/></symbol><symbol id="globe-duotone" viewBox="0 0 256 256"><g fill="currentColor"><path d="M224 128a96 96 0 1 1-96-96a96 96 0 0 1 96 96" opacity=".2"/><path d="M128 24a104 104 0 1 0 104 104A104.12 104.12 0 0 0 128 24m88 104a87.6 87.6 0 0 1-3.33 24h-38.51a157.4 157.4 0 0 0 0-48h38.51a87.6 87.6 0 0 1 3.33 24m-114 40h52a115.1 115.1 0 0 1-26 45a115.3 115.3 0 0 1-26-45m-3.9-16a140.8 140.8 0 0 1 0-48h59.88a140.8 140.8 0 0 1 0 48ZM40 128a87.6 87.6 0 0 1 3.33-24h38.51a157.4 157.4 0 0 0 0 48H43.33A87.6 87.6 0 0 1 40 128m114-40h-52a115.1 115.1 0 0 1 26-45a115.3 115.3 0 0 1 26 45m52.33 0h-35.62a135.3 135.3 0 0 0-22.3-45.6A88.29 88.29 0 0 1 206.37 88Zm-98.74-45.6A135.3 135.3 0 0 0 85.29 88H49.63a88.29 88.29 0 0 1 57.96-45.6M49.63 168h35.66a135.3 135.3 0 0 0 22.3 45.6A88.29 88.29 0 0 1 49.63 168m98.78 45.6a135.3 135.3 0 0 0 22.3-45.6h35.66a88.29 88.29 0 0 1-57.96 45.6"/></g></symbol><symbol id="globe" viewBox="0 0 256 256"><path fill="currentColor" d="M128 24a104 104 0 1 0 104 104A104.12 104.12 0 0 0 128 24m88 104a87.6 87.6 0 0 1-3.33 24h-38.51a157.4 157.4 0 0 0 0-48h38.51a87.6 87.6 0 0 1 3.33 24m-114 40h52a115.1 115.1 0 0 1-26 45a115.3 115.3 0 0 1-26-45m-3.9-16a140.8 140.8 0 0 1 0-48h59.88a140.8 140.8 0 0 1 0 48ZM40 128a87.6 87.6 0 0 1 3.33-24h38.51a157.4 157.4 0 0 0 0 48H43.33A87.6 87.6 0 0 1 40 128m114-40h-52a115.1 115.1 0 0 1 26-45a115.3 115.3 0 0 1 26 45m52.33 0h-35.62a135.3 135.3 0 0 0-22.3-45.6A88.29 88.29 0 0 1 206.37 88Zm-98.74-45.6A135.3 135.3 0 0 0 85.29 88H49.63a88.29 88.29 0 0 1 57.96-45.6M49.63 168h35.66a135.3 135.3 0 0 0 22.3 45.6A88.29 88.29 0 0 1 49.63 168m98.78 45.6a135.3 135.3 0 0 0 22.3-45.6h35.66a88.29 88.29 0 0 1-57.96 45.6"/></symbol><symbol id="handbag-simple" viewBox="0 0 256 256"><path fill="currentColor" d="m239.89 198.12l-14.26-120a16 16 0 0 0-16-14.12H176a48 48 0 0 0-96 0H46.33a16 16 0 0 0-16 14.12l-14.26 120A16 16 0 0 0 20 210.6a16.13 16.13 0 0 0 12 5.4h191.92a16.13 16.13 0 0 0 12.08-5.4a16 16 0 0 0 3.89-12.48M128 32a32 32 0 0 1 32 32H96a32 32 0 0 1 32-32M32 200L46.33 80h163.42l14.17 120Z"/></symbol><symbol id="handbag" viewBox="0 0 256 256"><path fill="currentColor" d="m239.89 198.12l-14.26-120a16 16 0 0 0-16-14.12H176a48 48 0 0 0-96 0H46.33a16 16 0 0 0-16 14.12l-14.26 120A16 16 0 0 0 20 210.6a16.13 16.13 0 0 0 12 5.4h191.92a16.13 16.13 0 0 0 12.08-5.4a16 16 0 0 0 3.89-12.48M128 32a32 32 0 0 1 32 32H96a32 32 0 0 1 32-32M32 200L46.33 80H80v24a8 8 0 0 0 16 0V80h64v24a8 8 0 0 0 16 0V80h33.75l14.17 120Z"/></symbol><symbol id="heart-duotone" viewBox="0 0 256 256"><g fill="currentColor"><path d="M232 102c0 66-104 122-104 122S24 168 24 102a54 54 0 0 1 54-54c22.59 0 41.94 12.31 50 32c8.06-19.69 27.41-32 50-32a54 54 0 0 1 54 54" opacity=".2"/><path d="M178 40c-20.65 0-38.73 8.88-50 23.89C116.73 48.88 98.65 40 78 40a62.07 62.07 0 0 0-62 62c0 70 103.79 126.66 108.21 129a8 8 0 0 0 7.58 0C136.21 228.66 240 172 240 102a62.07 62.07 0 0 0-62-62m-50 174.8c-18.26-10.64-96-59.11-96-112.8a46.06 46.06 0 0 1 46-46c19.45 0 35.78 10.36 42.6 27a8 8 0 0 0 14.8 0c6.82-16.67 23.15-27 42.6-27a46.06 46.06 0 0 1 46 46c0 53.61-77.76 102.15-96 112.8"/></g></symbol><symbol id="heart" viewBox="0 0 256 256"><path fill="currentColor" d="M178 40c-20.65 0-38.73 8.88-50 23.89C116.73 48.88 98.65 40 78 40a62.07 62.07 0 0 0-62 62c0 70 103.79 126.66 108.21 129a8 8 0 0 0 7.58 0C136.21 228.66 240 172 240 102a62.07 62.07 0 0 0-62-62m-50 174.8c-18.26-10.64-96-59.11-96-112.8a46.06 46.06 0 0 1 46-46c19.45 0 35.78 10.36 42.6 27a8 8 0 0 0 14.8 0c6.82-16.67 23.15-27 42.6-27a46.06 46.06 0 0 1 46 46c0 53.61-77.76 102.15-96 112.8"/></symbol><symbol id="image" viewBox="0 0 256 256"><path fill="currentColor" d="M216 40H40a16 16 0 0 0-16 16v144a16 16 0 0 0 16 16h176a16 16 0 0 0 16-16V56a16 16 0 0 0-16-16m0 16v102.75l-26.07-26.06a16 16 0 0 0-22.63 0l-20 20l-44-44a16 16 0 0 0-22.62 0L40 149.37V56ZM40 172l52-52l80 80H40Zm176 28h-21.37l-36-36l20-20L216 181.38zm-72-100a12 12 0 1 1 12 12a12 12 0 0 1-12-12"/></symbol><symbol id="instagram-logo" viewBox="0 0 256 256"><path fill="currentColor" d="M128 80a48 48 0 1 0 48 48a48.05 48.05 0 0 0-48-48m0 80a32 32 0 1 1 32-32a32 32 0 0 1-32 32m48-136H80a56.06 56.06 0 0 0-56 56v96a56.06 56.06 0 0 0 56 56h96a56.06 56.06 0 0 0 56-56V80a56.06 56.06 0 0 0-56-56m40 152a40 40 0 0 1-40 40H80a40 40 0 0 1-40-40V80a40 40 0 0 1 40-40h96a40 40 0 0 1 40 40ZM192 76a12 12 0 1 1-12-12a12 12 0 0 1 12 12"/></symbol><symbol id="leaf-duotone" viewBox="0 0 256 256"><g fill="currentColor"><path d="M63.81 192.19c-47.89-79.81 16-159.62 151.64-151.64c7.98 135.68-71.83 199.53-151.64 151.64" opacity=".2"/><path d="M223.45 40.07a8 8 0 0 0-7.52-7.52C139.8 28.08 78.82 51 52.82 94a87.1 87.1 0 0 0-12.76 49c.57 15.92 5.21 32 13.79 47.85l-19.51 19.5a8 8 0 0 0 11.32 11.32l19.5-19.51C81 210.73 97.09 215.37 113 215.94q1.67.06 3.33.06A86.93 86.93 0 0 0 162 203.18c43-26 65.93-86.97 61.45-163.11m-69.7 149.43c-22.75 13.78-49.68 14-76.71.77l88.63-88.62a8 8 0 0 0-11.32-11.32L65.73 179c-13.19-27-13-54 .77-76.71c22.09-36.47 74.6-56.44 141.31-54.06c2.39 66.66-17.59 119.18-54.06 141.27"/></g></symbol><symbol id="leaf" viewBox="0 0 256 256"><path fill="currentColor" d="M223.45 40.07a8 8 0 0 0-7.52-7.52C139.8 28.08 78.82 51 52.82 94a87.1 87.1 0 0 0-12.76 49c.57 15.92 5.21 32 13.79 47.85l-19.51 19.5a8 8 0 0 0 11.32 11.32l19.5-19.51C81 210.73 97.09 215.37 113 215.94q1.67.06 3.33.06A86.93 86.93 0 0 0 162 203.18c43-26 65.93-86.97 61.45-163.11m-69.7 149.43c-22.75 13.78-49.68 14-76.71.77l88.63-88.62a8 8 0 0 0-11.32-11.32L65.73 179c-13.19-27-13-54 .77-76.71c22.09-36.47 74.6-56.44 141.31-54.06c2.39 66.66-17.59 119.18-54.06 141.27"/></symbol><symbol id="linkedin-logo" viewBox="0 0 256 256"><path fill="currentColor" d="M216 24H40a16 16 0 0 0-16 16v176a16 16 0 0 0 16 16h176a16 16 0 0 0 16-16V40a16 16 0 0 0-16-16m0 192H40V40h176zM96 112v64a8 8 0 0 1-16 0v-64a8 8 0 0 1 16 0m88 28v36a8 8 0 0 1-16 0v-36a20 20 0 0 0-40 0v36a8 8 0 0 1-16 0v-64a8 8 0 0 1 15.79-1.78A36 36 0 0 1 184 140m-84-56a12 12 0 1 1-12-12a12 12 0 0 1 12 12"/></symbol><symbol id="list" viewBox="0 0 256 256"><path fill="currentColor" d="M224 128a8 8 0 0 1-8 8H40a8 8 0 0 1 0-16h176a8 8 0 0 1 8 8M40 72h176a8 8 0 0 0 0-16H40a8 8 0 0 0 0 16m176 112H40a8 8 0 0 0 0 16h176a8 8 0 0 0 0-16"/></symbol><symbol id="magnifying-glass" viewBox="0 0 256 256"><path fill="currentColor" d="m229.66 218.34l-50.07-50.06a88.11 88.11 0 1 0-11.31 11.31l50.06 50.07a8 8 0 0 0 11.32-11.32M40 112a72 72 0 1 1 72 72a72.08 72.08 0 0 1-72-72"/></symbol><symbol id="map-pin-duotone" viewBox="0 0 256 256"><g fill="currentColor"><path d="M128 24a80 80 0 0 0-80 80c0 72 80 128 80 128s80-56 80-128a80 80 0 0 0-80-80m0 112a32 32 0 1 1 32-32a32 32 0 0 1-32 32" opacity=".2"/><path d="M128 64a40 40 0 1 0 40 40a40 40 0 0 0-40-40m0 64a24 24 0 1 1 24-24a24 24 0 0 1-24 24m0-112a88.1 88.1 0 0 0-88 88c0 31.4 14.51 64.68 42 96.25a254.2 254.2 0 0 0 41.45 38.3a8 8 0 0 0 9.18 0a254.2 254.2 0 0 0 41.37-38.3c27.45-31.57 42-64.85 42-96.25a88.1 88.1 0 0 0-88-88m0 206c-16.53-13-72-60.75-72-118a72 72 0 0 1 144 0c0 57.23-55.47 105-72 118"/></g></symbol><symbol id="map-pin" viewBox="0 0 256 256"><path fill="currentColor" d="M128 64a40 40 0 1 0 40 40a40 40 0 0 0-40-40m0 64a24 24 0 1 1 24-24a24 24 0 0 1-24 24m0-112a88.1 88.1 0 0 0-88 88c0 31.4 14.51 64.68 42 96.25a254.2 254.2 0 0 0 41.45 38.3a8 8 0 0 0 9.18 0a254.2 254.2 0 0 0 41.37-38.3c27.45-31.57 42-64.85 42-96.25a88.1 88.1 0 0 0-88-88m0 206c-16.53-13-72-60.75-72-118a72 72 0 0 1 144 0c0 57.23-55.47 105-72 118"/></symbol><symbol id="megaphone" viewBox="0 0 256 256"><path fill="currentColor" d="M248 120a48.05 48.05 0 0 0-48-48h-39.8c-2.91-.17-53.62-3.74-101.91-44.24A16 16 0 0 0 32 40v160a16 16 0 0 0 26.29 12.25c37.77-31.68 77-40.76 93.71-43.3v31.72a16 16 0 0 0 7.12 13.33l11 7.33A16 16 0 0 0 194.5 212l11.77-44.36A48.07 48.07 0 0 0 248 120M48 199.93V40c42.81 35.91 86.63 45 104 47.24v65.48c-17.35 2.28-61.16 11.35-104 47.21m131 8v.11l-11-7.33V168h21.6ZM200 152h-32V88h32a32 32 0 1 1 0 64"/></symbol><symbol id="minus" viewBox="0 0 256 256"><path fill="currentColor" d="M224 128a8 8 0 0 1-8 8H40a8 8 0 0 1 0-16h176a8 8 0 0 1 8 8"/></symbol><symbol id="note-pencil" viewBox="0 0 256 256"><path fill="currentColor" d="m229.66 58.34l-32-32a8 8 0 0 0-11.32 0l-96 96A8 8 0 0 0 88 128v32a8 8 0 0 0 8 8h32a8 8 0 0 0 5.66-2.34l96-96a8 8 0 0 0 0-11.32M124.69 152H104v-20.69l64-64L188.69 88ZM200 76.69L179.31 56L192 43.31L212.69 64ZM224 128v80a16 16 0 0 1-16 16H48a16 16 0 0 1-16-16V48a16 16 0 0 1 16-16h80a8 8 0 0 1 0 16H48v160h160v-80a8 8 0 0 1 16 0"/></symbol><symbol id="package-duotone" viewBox="0 0 256 256"><g fill="currentColor"><path d="M128 129.09V232a8 8 0 0 1-3.84-1l-88-48.18a8 8 0 0 1-4.16-7V80.18a8 8 0 0 1 .7-3.25Z" opacity=".2"/><path d="m223.68 66.15l-88-48.15a15.88 15.88 0 0 0-15.36 0l-88 48.17a16 16 0 0 0-8.32 14v95.64a16 16 0 0 0 8.32 14l88 48.17a15.88 15.88 0 0 0 15.36 0l88-48.17a16 16 0 0 0 8.32-14V80.18a16 16 0 0 0-8.32-14.03M128 32l80.34 44l-29.77 16.3l-80.35-44Zm0 88L47.66 76l33.9-18.56l80.34 44ZM40 90l80 43.78v85.79l-80-43.75Zm176 85.78l-80 43.79v-85.75l32-17.51V152a8 8 0 0 0 16 0v-44.45L216 90v85.77Z"/></g></symbol><symbol id="package" viewBox="0 0 256 256"><path fill="currentColor" d="m223.68 66.15l-88-48.15a15.88 15.88 0 0 0-15.36 0l-88 48.17a16 16 0 0 0-8.32 14v95.64a16 16 0 0 0 8.32 14l88 48.17a15.88 15.88 0 0 0 15.36 0l88-48.17a16 16 0 0 0 8.32-14V80.18a16 16 0 0 0-8.32-14.03M128 32l80.34 44l-29.77 16.3l-80.35-44Zm0 88L47.66 76l33.9-18.56l80.34 44ZM40 90l80 43.78v85.79l-80-43.75Zm176 85.78l-80 43.79v-85.75l32-17.51V152a8 8 0 0 0 16 0v-44.45L216 90v85.77Z"/></symbol><symbol id="pause" viewBox="0 0 256 256"><path fill="currentColor" d="M200 32h-40a16 16 0 0 0-16 16v160a16 16 0 0 0 16 16h40a16 16 0 0 0 16-16V48a16 16 0 0 0-16-16m0 176h-40V48h40ZM96 32H56a16 16 0 0 0-16 16v160a16 16 0 0 0 16 16h40a16 16 0 0 0 16-16V48a16 16 0 0 0-16-16m0 176H56V48h40Z"/></symbol><symbol id="pencil-line-duotone" viewBox="0 0 256 256"><g fill="currentColor"><path d="M221.66 90.34L192 120l-56-56l29.66-29.66a8 8 0 0 1 11.31 0L221.66 79a8 8 0 0 1 0 11.34" opacity=".2"/><path d="m227.32 73.37l-44.69-44.68a16 16 0 0 0-22.63 0L36.69 152A15.86 15.86 0 0 0 32 163.31V208a16 16 0 0 0 16 16h168a8 8 0 0 0 0-16H115.32l112-112a16 16 0 0 0 0-22.63M79.32 188L164 103.31L180.69 120L96 204.69ZM68 176.69L51.31 160L136 75.31L152.69 92Zm-20 2.62L76.69 208H48Zm144-70.62L147.32 64l24-24L216 84.69Z"/></g></symbol><symbol id="pencil-line" viewBox="0 0 256 256"><path fill="currentColor" d="m227.32 73.37l-44.69-44.68a16 16 0 0 0-22.63 0L36.69 152A15.86 15.86 0 0 0 32 163.31V208a16 16 0 0 0 16 16h168a8 8 0 0 0 0-16H115.32l112-112a16 16 0 0 0 0-22.63M136 75.31L152.69 92L68 176.69L51.31 160ZM48 208v-28.69L76.69 208Zm48-3.31L79.32 188L164 103.31L180.69 120Zm96-96L147.32 64l24-24L216 84.69Z"/></symbol><symbol id="pinterest-logo" viewBox="0 0 256 256"><path fill="currentColor" d="M224 112c0 22.57-7.9 43.2-22.23 58.11C188.39 184 170.25 192 152 192c-17.88 0-29.82-5.86-37.43-12l-10.78 45.82A8 8 0 0 1 96 232a8.2 8.2 0 0 1-1.84-.21a8 8 0 0 1-6-9.62l32-136a8 8 0 0 1 15.58 3.66l-16.9 71.8C122 166 131.3 176 152 176c27.53 0 56-23.94 56-64a72 72 0 1 0-134.37 36a8 8 0 0 1-13.85 8A88 88 0 1 1 224 112"/></symbol><symbol id="play" viewBox="0 0 256 256"><path fill="currentColor" d="M232.4 114.49L88.32 26.35a16 16 0 0 0-16.2-.3A15.86 15.86 0 0 0 64 39.87v176.26A15.94 15.94 0 0 0 80 232a16.07 16.07 0 0 0 8.36-2.35l144.04-88.14a15.81 15.81 0 0 0 0-27ZM80 215.94V40l143.83 88Z"/></symbol><symbol id="plus" viewBox="0 0 256 256"><path fill="currentColor" d="M224 128a8 8 0 0 1-8 8h-80v80a8 8 0 0 1-16 0v-80H40a8 8 0 0 1 0-16h80V40a8 8 0 0 1 16 0v80h80a8 8 0 0 1 8 8"/></symbol><symbol id="seal-check" viewBox="0 0 256 256"><path fill="currentColor" d="M225.86 102.82c-3.77-3.94-7.67-8-9.14-11.57c-1.36-3.27-1.44-8.69-1.52-13.94c-.15-9.76-.31-20.82-8-28.51s-18.75-7.85-28.51-8c-5.25-.08-10.67-.16-13.94-1.52c-3.56-1.47-7.63-5.37-11.57-9.14C146.28 23.51 138.44 16 128 16s-18.27 7.51-25.18 14.14c-3.94 3.77-8 7.67-11.57 9.14c-3.25 1.36-8.69 1.44-13.94 1.52c-9.76.15-20.82.31-28.51 8s-7.8 18.75-8 28.51c-.08 5.25-.16 10.67-1.52 13.94c-1.47 3.56-5.37 7.63-9.14 11.57C23.51 109.72 16 117.56 16 128s7.51 18.27 14.14 25.18c3.77 3.94 7.67 8 9.14 11.57c1.36 3.27 1.44 8.69 1.52 13.94c.15 9.76.31 20.82 8 28.51s18.75 7.85 28.51 8c5.25.08 10.67.16 13.94 1.52c3.56 1.47 7.63 5.37 11.57 9.14c6.9 6.63 14.74 14.14 25.18 14.14s18.27-7.51 25.18-14.14c3.94-3.77 8-7.67 11.57-9.14c3.27-1.36 8.69-1.44 13.94-1.52c9.76-.15 20.82-.31 28.51-8s7.85-18.75 8-28.51c.08-5.25.16-10.67 1.52-13.94c1.47-3.56 5.37-7.63 9.14-11.57c6.63-6.9 14.14-14.74 14.14-25.18s-7.51-18.27-14.14-25.18m-11.55 39.29c-4.79 5-9.75 10.17-12.38 16.52c-2.52 6.1-2.63 13.07-2.73 19.82c-.1 7-.21 14.33-3.32 17.43s-10.39 3.22-17.43 3.32c-6.75.1-13.72.21-19.82 2.73c-6.35 2.63-11.52 7.59-16.52 12.38S132 224 128 224s-9.15-4.92-14.11-9.69s-10.17-9.75-16.52-12.38c-6.1-2.52-13.07-2.63-19.82-2.73c-7-.1-14.33-.21-17.43-3.32s-3.22-10.39-3.32-17.43c-.1-6.75-.21-13.72-2.73-19.82c-2.63-6.35-7.59-11.52-12.38-16.52S32 132 32 128s4.92-9.15 9.69-14.11s9.75-10.17 12.38-16.52c2.52-6.1 2.63-13.07 2.73-19.82c.1-7 .21-14.33 3.32-17.43s10.39-3.22 17.43-3.32c6.75-.1 13.72-.21 19.82-2.73c6.35-2.63 11.52-7.59 16.52-12.38S124 32 128 32s9.15 4.92 14.11 9.69s10.17 9.75 16.52 12.38c6.1 2.52 13.07 2.63 19.82 2.73c7 .1 14.33.21 17.43 3.32s3.22 10.39 3.32 17.43c.1 6.75.21 13.72 2.73 19.82c2.63 6.35 7.59 11.52 12.38 16.52S224 124 224 128s-4.92 9.15-9.69 14.11m-40.65-43.77a8 8 0 0 1 0 11.32l-56 56a8 8 0 0 1-11.32 0l-24-24a8 8 0 0 1 11.32-11.32L112 148.69l50.34-50.35a8 8 0 0 1 11.32 0"/></symbol><symbol id="shield-check-duotone" viewBox="0 0 256 256"><g fill="currentColor"><path d="M216 56v56c0 96-88 120-88 120s-88-24-88-120V56a8 8 0 0 1 8-8h160a8 8 0 0 1 8 8" opacity=".2"/><path d="M208 40H48a16 16 0 0 0-16 16v56c0 52.72 25.52 84.67 46.93 102.19c23.06 18.86 46 25.26 47 25.53a8 8 0 0 0 4.2 0c1-.27 23.91-6.67 47-25.53C198.48 196.67 224 164.72 224 112V56a16 16 0 0 0-16-16m0 72c0 37.07-13.66 67.16-40.6 89.42a129.3 129.3 0 0 1-39.4 22.2a128.3 128.3 0 0 1-38.92-21.81C61.82 179.51 48 149.3 48 112V56h160ZM82.34 141.66a8 8 0 0 1 11.32-11.32L112 148.69l50.34-50.35a8 8 0 0 1 11.32 11.32l-56 56a8 8 0 0 1-11.32 0Z"/></g></symbol><symbol id="shield-check" viewBox="0 0 256 256"><path fill="currentColor" d="M208 40H48a16 16 0 0 0-16 16v56c0 52.72 25.52 84.67 46.93 102.19c23.06 18.86 46 25.26 47 25.53a8 8 0 0 0 4.2 0c1-.27 23.91-6.67 47-25.53C198.48 196.67 224 164.72 224 112V56a16 16 0 0 0-16-16m0 72c0 37.07-13.66 67.16-40.6 89.42a129.3 129.3 0 0 1-39.4 22.2a128.3 128.3 0 0 1-38.92-21.81C61.82 179.51 48 149.3 48 112V56h160ZM82.34 141.66a8 8 0 0 1 11.32-11.32L112 148.69l50.34-50.35a8 8 0 0 1 11.32 11.32l-56 56a8 8 0 0 1-11.32 0Z"/></symbol><symbol id="shopping-cart" viewBox="0 0 256 256"><path fill="currentColor" d="M230.14 58.87A8 8 0 0 0 224 56H62.68L56.6 22.57A8 8 0 0 0 48.73 16H24a8 8 0 0 0 0 16h18l25.56 140.29a24 24 0 0 0 5.33 11.27a28 28 0 1 0 44.4 8.44h45.42a27.75 27.75 0 0 0-2.71 12a28 28 0 1 0 28-28H91.17a8 8 0 0 1-7.87-6.57L80.13 152h116a24 24 0 0 0 23.61-19.71l12.16-66.86a8 8 0 0 0-1.76-6.56M104 204a12 12 0 1 1-12-12a12 12 0 0 1 12 12m96 0a12 12 0 1 1-12-12a12 12 0 0 1 12 12m4-74.57a8 8 0 0 1-7.9 6.57H77.22L65.59 72h148.82Z"/></symbol><symbol id="sign-out" viewBox="0 0 256 256"><path fill="currentColor" d="M120 216a8 8 0 0 1-8 8H48a8 8 0 0 1-8-8V40a8 8 0 0 1 8-8h64a8 8 0 0 1 0 16H56v160h56a8 8 0 0 1 8 8m109.66-93.66l-40-40a8 8 0 0 0-11.32 11.32L204.69 120H112a8 8 0 0 0 0 16h92.69l-26.35 26.34a8 8 0 0 0 11.32 11.32l40-40a8 8 0 0 0 0-11.32"/></symbol><symbol id="sliders" viewBox="0 0 256 256"><path fill="currentColor" d="M64 105V40a8 8 0 0 0-16 0v65a32 32 0 0 0 0 62v49a8 8 0 0 0 16 0v-49a32 32 0 0 0 0-62m-8 47a16 16 0 1 1 16-16a16 16 0 0 1-16 16m80-95V40a8 8 0 0 0-16 0v17a32 32 0 0 0 0 62v97a8 8 0 0 0 16 0v-97a32 32 0 0 0 0-62m-8 47a16 16 0 1 1 16-16a16 16 0 0 1-16 16m104 64a32.06 32.06 0 0 0-24-31V40a8 8 0 0 0-16 0v97a32 32 0 0 0 0 62v17a8 8 0 0 0 16 0v-17a32.06 32.06 0 0 0 24-31m-32 16a16 16 0 1 1 16-16a16 16 0 0 1-16 16"/></symbol><symbol id="smiley-duotone" viewBox="0 0 256 256"><g fill="currentColor"><path d="M224 128a96 96 0 1 1-96-96a96 96 0 0 1 96 96" opacity=".2"/><path d="M128 24a104 104 0 1 0 104 104A104.11 104.11 0 0 0 128 24m0 192a88 88 0 1 1 88-88a88.1 88.1 0 0 1-88 88M80 108a12 12 0 1 1 12 12a12 12 0 0 1-12-12m96 0a12 12 0 1 1-12-12a12 12 0 0 1 12 12m-1.08 48c-10.29 17.79-27.39 28-46.92 28s-36.63-10.2-46.92-28a8 8 0 1 1 13.84-8c7.47 12.91 19.21 20 33.08 20s25.61-7.1 33.08-20a8 8 0 1 1 13.84 8"/></g></symbol><symbol id="smiley" viewBox="0 0 256 256"><path fill="currentColor" d="M128 24a104 104 0 1 0 104 104A104.11 104.11 0 0 0 128 24m0 192a88 88 0 1 1 88-88a88.1 88.1 0 0 1-88 88M80 108a12 12 0 1 1 12 12a12 12 0 0 1-12-12m96 0a12 12 0 1 1-12-12a12 12 0 0 1 12 12m-1.07 48c-10.29 17.79-27.4 28-46.93 28s-36.63-10.2-46.92-28a8 8 0 1 1 13.84-8c7.47 12.91 19.21 20 33.08 20s25.61-7.1 33.07-20a8 8 0 0 1 13.86 8"/></symbol><symbol id="star-duotone" viewBox="0 0 256 256"><g fill="currentColor"><path d="m229.06 108.79l-48.7 42l14.88 62.79a8.4 8.4 0 0 1-12.52 9.17L128 189.09l-54.72 33.65a8.4 8.4 0 0 1-12.52-9.17l14.88-62.79l-48.7-42A8.46 8.46 0 0 1 31.73 94l63.91-5.2l24.62-59.6a8.36 8.36 0 0 1 15.48 0l24.62 59.6l63.91 5.2a8.46 8.46 0 0 1 4.79 14.79" opacity=".2"/><path d="M239.18 97.26A16.38 16.38 0 0 0 224.92 86l-59-4.76l-22.78-55.09a16.36 16.36 0 0 0-30.27 0L90.11 81.23L31.08 86a16.46 16.46 0 0 0-9.37 28.86l45 38.83L53 211.75a16.38 16.38 0 0 0 24.5 17.82l50.5-31.08l50.53 31.08A16.4 16.4 0 0 0 203 211.75l-13.76-58.07l45-38.83a16.43 16.43 0 0 0 4.94-17.59m-15.34 5.47l-48.7 42a8 8 0 0 0-2.56 7.91l14.88 62.8a.37.37 0 0 1-.17.48c-.18.14-.23.11-.38 0l-54.72-33.65a8 8 0 0 0-8.38 0l-54.72 33.67c-.15.09-.19.12-.38 0a.37.37 0 0 1-.17-.48l14.88-62.8a8 8 0 0 0-2.56-7.91l-48.7-42c-.12-.1-.23-.19-.13-.5s.18-.27.33-.29l63.92-5.16a8 8 0 0 0 6.72-4.94l24.62-59.61c.08-.17.11-.25.35-.25s.27.08.35.25L153 91.86a8 8 0 0 0 6.75 4.92l63.92 5.16c.15 0 .24 0 .33.29s0 .4-.16.5"/></g></symbol><symbol id="star-fill" viewBox="0 0 256 256"><path fill="currentColor" d="m234.29 114.85l-45 38.83L203 211.75a16.4 16.4 0 0 1-24.5 17.82L128 198.49l-50.53 31.08A16.4 16.4 0 0 1 53 211.75l13.76-58.07l-45-38.83A16.46 16.46 0 0 1 31.08 86l59-4.76l22.76-55.08a16.36 16.36 0 0 1 30.27 0l22.75 55.08l59 4.76a16.46 16.46 0 0 1 9.37 28.86Z"/></symbol><symbol id="star-half-fill" viewBox="0 0 256 256"><path fill="currentColor" d="M239.18 97.26A16.38 16.38 0 0 0 224.92 86l-59-4.76l-22.78-55.09a16.36 16.36 0 0 0-30.27 0L90.11 81.23L31.08 86a16.46 16.46 0 0 0-9.37 28.86l45 38.83L53 211.75a16.4 16.4 0 0 0 24.5 17.82l50.5-31.08l50.53 31.08A16.4 16.4 0 0 0 203 211.75l-13.76-58.07l45-38.83a16.43 16.43 0 0 0 4.94-17.59m-15.34 5.47l-48.7 42a8 8 0 0 0-2.56 7.91l14.88 62.8a.37.37 0 0 1-.17.48c-.18.14-.23.11-.38 0l-54.72-33.65a8 8 0 0 0-4.19-1.17V32c.24 0 .27.08.35.26L153 91.86a8 8 0 0 0 6.75 4.92l63.91 5.16c.16 0 .25 0 .34.29s0 .4-.16.5"/></symbol><symbol id="star-half" viewBox="0 0 256 256"><path fill="currentColor" d="m234.29 114.85l-5.06 4.37a8 8 0 0 1-10.45-12.12l5.06-4.37c.12-.1.23-.19.13-.5s-.18-.27-.34-.29l-8.27-.67a8 8 0 1 1 1.29-15.94l8.27.66a16.46 16.46 0 0 1 9.37 28.86m-61.71 37.79l4.08 17.22a8 8 0 0 0 7.78 6.16a8 8 0 0 0 1.85-.22a8 8 0 0 0 5.94-9.63l-3-12.49l8-6.86a8 8 0 0 0-10.45-12.12l-11.64 10a8 8 0 0 0-2.56 7.94m29.13 53.53a8 8 0 0 0-15.57 3.69l1.32 5.58a.37.37 0 0 1-.17.48c-.18.14-.23.11-.38 0l-6.72-4.13a8 8 0 0 0-8.38 13.63l6.72 4.13a16.4 16.4 0 0 0 24.47-17.8ZM175.36 98.05l-15.64-1.27a8 8 0 0 1-6.72-4.92l-17-41.08v133.85l7.43 4.57a8 8 0 1 1-8.38 13.63l-7.05-4.34l-50.53 31.08A16.4 16.4 0 0 1 53 211.75l13.76-58.07l-45-38.83A16.46 16.46 0 0 1 31.08 86l59-4.76l22.76-55.08a16.36 16.36 0 0 1 30.27 0l22.75 55.08l10.76.87a8 8 0 1 1-1.29 16ZM120 184.63V50.78l-17 41.08a8 8 0 0 1-6.75 4.92l-63.92 5.16c-.15 0-.24 0-.33.29a.39.39 0 0 0 .13.51l48.7 42a8 8 0 0 1 2.56 7.91l-14.88 62.8a.37.37 0 0 0 .17.48c.18.14.23.11.38 0Z"/></symbol><symbol id="star" viewBox="0 0 256 256"><path fill="currentColor" d="M239.18 97.26A16.38 16.38 0 0 0 224.92 86l-59-4.76l-22.78-55.09a16.36 16.36 0 0 0-30.27 0L90.11 81.23L31.08 86a16.46 16.46 0 0 0-9.37 28.86l45 38.83L53 211.75a16.38 16.38 0 0 0 24.5 17.82l50.5-31.08l50.53 31.08A16.4 16.4 0 0 0 203 211.75l-13.76-58.07l45-38.83a16.43 16.43 0 0 0 4.94-17.59m-15.34 5.47l-48.7 42a8 8 0 0 0-2.56 7.91l14.88 62.8a.37.37 0 0 1-.17.48c-.18.14-.23.11-.38 0l-54.72-33.65a8 8 0 0 0-8.38 0l-54.72 33.67c-.15.09-.19.12-.38 0a.37.37 0 0 1-.17-.48l14.88-62.8a8 8 0 0 0-2.56-7.91l-48.7-42c-.12-.1-.23-.19-.13-.5s.18-.27.33-.29l63.92-5.16a8 8 0 0 0 6.72-4.94l24.62-59.61c.08-.17.11-.25.35-.25s.27.08.35.25L153 91.86a8 8 0 0 0 6.75 4.92l63.92 5.16c.15 0 .24 0 .33.29s0 .4-.16.5"/></symbol><symbol id="tag" viewBox="0 0 256 256"><path fill="currentColor" d="M243.31 136L144 36.69A15.86 15.86 0 0 0 132.69 32H40a8 8 0 0 0-8 8v92.69A15.86 15.86 0 0 0 36.69 144L136 243.31a16 16 0 0 0 22.63 0l84.68-84.68a16 16 0 0 0 0-22.63m-96 96L48 132.69V48h84.69L232 147.31ZM96 84a12 12 0 1 1-12-12a12 12 0 0 1 12 12"/></symbol><symbol id="trash" viewBox="0 0 256 256"><path fill="currentColor" d="M216 48h-40v-8a24 24 0 0 0-24-24h-48a24 24 0 0 0-24 24v8H40a8 8 0 0 0 0 16h8v144a16 16 0 0 0 16 16h128a16 16 0 0 0 16-16V64h8a8 8 0 0 0 0-16M96 40a8 8 0 0 1 8-8h48a8 8 0 0 1 8 8v8H96Zm96 168H64V64h128Zm-80-104v64a8 8 0 0 1-16 0v-64a8 8 0 0 1 16 0m48 0v64a8 8 0 0 1-16 0v-64a8 8 0 0 1 16 0"/></symbol><symbol id="truck" viewBox="0 0 256 256"><path fill="currentColor" d="m255.42 117l-14-35a15.93 15.93 0 0 0-14.84-10H192v-8a8 8 0 0 0-8-8H32a16 16 0 0 0-16 16v112a16 16 0 0 0 16 16h17a32 32 0 0 0 62 0h50a32 32 0 0 0 62 0h17a16 16 0 0 0 16-16v-64a7.9 7.9 0 0 0-.58-3M192 88h34.58l9.6 24H192ZM32 72h144v64H32Zm48 136a16 16 0 1 1 16-16a16 16 0 0 1-16 16m81-24h-50a32 32 0 0 0-62 0H32v-32h144v12.31A32.1 32.1 0 0 0 161 184m31 24a16 16 0 1 1 16-16a16 16 0 0 1-16 16m48-24h-17a32.06 32.06 0 0 0-31-24v-32h48Z"/></symbol><symbol id="user" viewBox="0 0 256 256"><path fill="currentColor" d="M230.92 212c-15.23-26.33-38.7-45.21-66.09-54.16a72 72 0 1 0-73.66 0c-27.39 8.94-50.86 27.82-66.09 54.16a8 8 0 1 0 13.85 8c18.84-32.56 52.14-52 89.07-52s70.23 19.44 89.07 52a8 8 0 1 0 13.85-8M72 96a56 56 0 1 1 56 56a56.06 56.06 0 0 1-56-56"/></symbol><symbol id="video-camera" viewBox="0 0 256 256"><path fill="currentColor" d="M251.77 73a8 8 0 0 0-8.21.39L208 97.05V72a16 16 0 0 0-16-16H32a16 16 0 0 0-16 16v112a16 16 0 0 0 16 16h160a16 16 0 0 0 16-16v-25l35.56 23.71A8 8 0 0 0 248 184a8 8 0 0 0 8-8V80a8 8 0 0 0-4.23-7M192 184H32V72h160zm48-22.95l-32-21.33v-23.44L240 95Z"/></symbol><symbol id="warning-circle" viewBox="0 0 256 256"><path fill="currentColor" d="M128 24a104 104 0 1 0 104 104A104.11 104.11 0 0 0 128 24m0 192a88 88 0 1 1 88-88a88.1 88.1 0 0 1-88 88m-8-80V80a8 8 0 0 1 16 0v56a8 8 0 0 1-16 0m20 36a12 12 0 1 1-12-12a12 12 0 0 1 12 12"/></symbol><symbol id="x-logo" viewBox="0 0 256 256"><path fill="currentColor" d="m214.75 211.71l-62.6-98.38l61.77-67.95a8 8 0 0 0-11.84-10.76l-58.84 64.72l-40.49-63.63A8 8 0 0 0 96 32H48a8 8 0 0 0-6.75 12.3l62.6 98.37l-61.77 68a8 8 0 1 0 11.84 10.76l58.84-64.72l40.49 63.63A8 8 0 0 0 160 224h48a8 8 0 0 0 6.75-12.29M164.39 208L62.57 48h29l101.86 160Z"/></symbol><symbol id="x" viewBox="0 0 256 256"><path fill="currentColor" d="M205.66 194.34a8 8 0 0 1-11.32 11.32L128 139.31l-66.34 66.35a8 8 0 0 1-11.32-11.32L116.69 128L50.34 61.66a8 8 0 0 1 11.32-11.32L128 116.69l66.34-66.35a8 8 0 0 1 11.32 11.32L139.31 128Z"/></symbol></svg>
